#!OML:ASF F:\VICON\USERDATA\INSTALL\rory3\rory3.ASF
:FULLY-SPECIFIED
:DEGREES
55
root 0.30173339895683293 18.195655667547268 28.382090358791608 1.1013398573171542 1.44922490833832 -5.2242593594078395
lfemur -32.26365922809228 -2.6316042625170315 -16.55190296510424
ltibia 37.42572789963177
lfoot -4.458576007474244 -5.696478557882743
ltoes -11.390797672042034
rfemur 10.87975377200162 4.390000887935484 32.79063962059697
rtibia 29.07055538727564
rfoot 12.714671728256349 -0.8653024684843169
rtoes 7.257563316867746
lowerback 10.807825629249272 2.521776632121214 6.73943570855986
upperback -1.0833829350718638 4.358617021900333 1.417562908462103
thorax -6.732496558832224 1.879283317740142 -3.3932956647579555
lowerneck -17.770028350539913 -4.250546051445698 -2.079328587502728
upperneck 18.272746657514045 -5.698167055613098 1.9196720160918204
head 8.782456299087919 -2.607073431185417 0.19467515575407532
lclavicle -2.5806426720252903e-15 4.611147266882016e-16
lhumerus -54.75589882572688 -0.29017274638636703 89.6935877454372
lradius 63.90809242534331
lwrist 19.180484342669374
lhand -26.133256968454496 14.417486713992563
lfingers 7.125019999999999
lthumb 0.41695636141740566 44.39394817385641
rclavicle -2.5806426720252903e-15 4.611147266882016e-16
rhumerus -32.02757246612055 0.5238862669345021 -85.74387930840345
rradius 71.93309301634072
rwrist -3.154268908893092
rhand -16.08789725789442 30.163315109926323
rfingers 7.125019999999999
rthumb 10.114977391503098 1.9464427531142934
56
root 0.3097596865522674 18.244520699286554 28.8200974804884 1.045888072138304 1.4727048695605036 -5.317018020720037
lfemur -31.1778928878543 -2.7667665772588723 -17.497790977297825
ltibia 30.112558488223343
lfoot -3.70385591279502 -7.1944799367821
ltoes -12.027647159776928
rfemur 11.118132276098745 5.264944700290677 32.706254187616246
rtibia 29.689363974418065
rfoot 15.2858620887483 -1.0517801721739346
rtoes 10.154388615711166
lowerback 10.431556904422347 2.6469558261668364 6.697165728235696
upperback -1.226812707832277 4.474400803577074 1.2185053243243247
thorax -6.61019531002157 1.938814769586104 -3.725294789054039
lowerneck -17.665540170324327 -4.3135301345850685 -2.204109101443704
upperneck 18.566827343907036 -5.799426290936984 2.0082863221058043
head 8.883577750737759 -2.646239641867389 0.22827471674667027
lclavicle -3.2914536607708457e-15 -3.7251264504117334e-17
lhumerus -55.99278599850822 0.7190052030333991 88.95305064285326
lradius 64.79033047279155
lwrist 18.709485344422816
lhand -26.3478916634378 13.86464956867494
lfingers 7.125019999999999
lthumb 0.20965422522466864 43.842717764026226
rclavicle -3.2914536607708457e-15 -3.7251264504117334e-17
rhumerus -32.57091631704466 0.5957179914645394 -86.00192835258053
rradius 71.4401518493274
rwrist -3.1578962504139643
rhand -16.082015477981596 29.98961266817449
rfingers 7.125019999999999
rthumb 10.120732375652901 1.9428330495207666
57
root -0.01428411153045378 18.421022971194134 29.6717570265277 4.033004852264164 3.190966314812446 -5.14804032770925
lfemur -36.45617456622988 -1.8248998433526067 -18.798253344363026
ltibia 32.37840924149632
lfoot 0.11585553795589659 -10.759205750187936
ltoes -16.850602761290368
rfemur 13.318210130028515 5.073071211123942 34.20026842784017
rtibia 41.35038622447759
rfoot 26.52441710034681 -1.2317213186082654
rtoes 15.255999279599466
lowerback 12.145999547362209 2.814035614088449 6.484961248030334
upperback -2.421563190320647 4.872599358967372 1.1191104466668338
thorax -8.72792197880654 2.026952292964631 -4.482573143228306
lowerneck -19.11879394092413 -5.265641236568084 -2.2782276103655645
upperneck 15.451917289460264 -7.200807545819449 3.0426690630806212
head 8.087765157072111 -3.2260799806757054 0.5051997602471646
lclavicle -3.1355376039260346e-15 7.632993940250877e-16
lhumerus -73.57051924791224 -5.158297093081517 95.1823522876923
lradius 106.91874481888256
lwrist 32.662786836928646
lhand -25.210392029130613 2.400154587396193
lfingers 7.12502
lthumb 1.3082541347333734 32.371112108037806
rclavicle -3.1355376039260346e-15 7.632993940250877e-16
rhumerus -41.027075140421566 13.972280587210289 -94.88680617406463
rradius 114.24663792230902
rwrist -11.043057679938931
rhand -15.585961460332172 38.8838436806732
rfingers 7.12502
rthumb 10.599473044869388 10.491068355579213
58
root -0.014432463621305847 18.423184632959856 30.87501313303882 3.763839714993737 3.2788917003871374 -5.20078322149255
lfemur -34.35432590658545 -1.3327578257431392 -19.290529952952138
ltibia 28.390742162906406
lfoot 1.4055249828992493 -11.152864112859064
ltoes -16.897947972196633
rfemur 12.904804036202169 5.657463970340611 34.3879641417105
rtibia 46.498425930066034
rfoot 26.266635202717872 -2.4592184772231076
rtoes 16.599325217135664
lowerback 12.215307308236433 2.9015437637942947 6.47943442004713
upperback -2.3440837488637554 4.987455739423153 1.0906152767279806
thorax -8.68330919840421 2.082650502424253 -4.4717874293146185
lowerneck -19.123367548104433 -5.249073879673291 -2.3514091967240742
upperneck 15.52036695653783 -7.173622073078354 3.165745115760719
head 8.130708724901874 -3.20676557563636 0.5624165248668654
lclavicle -2.7985023728731178e-15 1.0077621184758439e-15
lhumerus -73.6390866589648 -4.357344825030168 94.843542999005
lradius 108.28685546673755
lwrist 32.07705790395421
lhand -24.966745485606047 1.8727763037167353
lfingers 7.12502
lthumb 1.543559723552476 31.8396655520071
rclavicle -2.7985023728731178e-15 1.0077621184758439e-15
rhumerus -41.214578642311594 14.272767201930659 -95.13445826483157
rradius 113.56682496407274
rwrist -10.903559673450443
rhand -15.891823607133842 38.88838927002301
rfingers 7.12502
rthumb 10.304621125848792 10.377866808631223
